HIERARCHY
ROOT Hips
{
  OFFSET 52.1275 85.4009 13.2067
  CHANNELS 6 Xposition Yposition Zposition Zrotation Xrotation Yrotation
  JOINT spine
  {
    OFFSET 0 6.3926 0.367606
    CHANNELS 3 Zrotation Xrotation Yrotation
    JOINT spine1
    {
      OFFSET 0 9.17611 0
      CHANNELS 3 Zrotation Xrotation Yrotation
      JOINT spine2
      {
        OFFSET 0 8.79238 0
        CHANNELS 3 Zrotation Xrotation Yrotation
        JOINT Neck
        {
          OFFSET 0 22.5737 1.07624
          CHANNELS 3 Zrotation Xrotation Yrotation
          JOINT Head
          {
            OFFSET 0 6.82011 0
            CHANNELS 3 Zrotation Xrotation Yrotation
            End Site
            {
              OFFSET 0 16.5085 -5.44427
            }
          }
        }
        JOINT RightShoulder
        {
          OFFSET -3.70221 9.49509 -0.515508
          CHANNELS 3 Zrotation Xrotation Yrotation
          JOINT RightArm
          {
            OFFSET 0 12.4537 0
            CHANNELS 3 Zrotation Xrotation Yrotation
            JOINT RightArmRoll
            {
              OFFSET 0 6.28685 0
              CHANNELS 3 Zrotation Xrotation Yrotation
              JOINT RightForeArm
              {
                OFFSET 0 18.3114 0
                CHANNELS 3 Zrotation Xrotation Yrotation
                JOINT RightForeArmRoll
                {
                  OFFSET 0 7.05482 0
                  CHANNELS 3 Zrotation Xrotation Yrotation
                  JOINT RightHand
                  {
                    OFFSET 0 14.1575 0
                    CHANNELS 3 Zrotation Xrotation Yrotation
                    End Site
                    {
                      OFFSET 0 0 0
                    }
                  }
                }
              }
            }
          }
        }
        JOINT LeftShoulder
        {
          OFFSET 3.70221 9.49509 -0.515508
          CHANNELS 3 Zrotation Xrotation Yrotation
          JOINT LeftArm
          {
            OFFSET 0 12.4537 0
            CHANNELS 3 Zrotation Xrotation Yrotation
            JOINT LeftArmRoll
            {
              OFFSET 0 6.28686 0
              CHANNELS 3 Zrotation Xrotation Yrotation
              JOINT LeftForeArm
              {
                OFFSET 0 18.3114 0
                CHANNELS 3 Zrotation Xrotation Yrotation
                JOINT LeftForeArmRoll
                {
                  OFFSET 0 7.05482 0
                  CHANNELS 3 Zrotation Xrotation Yrotation
                  JOINT LeftHand
                  {
                    OFFSET 0 14.1575 0
                    CHANNELS 3 Zrotation Xrotation Yrotation
                    End Site
                    {
                      OFFSET 0 0 0
                    }
                  }
                }
              }
            }
          }
        }
      }
    }
  }
  JOINT RightUpLeg
  {
    OFFSET -5.66616 -1.03903 -0.87161
    CHANNELS 3 Zrotation Xrotation Yrotation
    JOINT RightUpLegRoll
    {
      OFFSET 0 16.6005 0
      CHANNELS 3 Zrotation Xrotation Yrotation
      JOINT RightLeg
      {
        OFFSET 0 -20.5572 0
        CHANNELS 3 Zrotation Xrotation Yrotation
        JOINT RightLegRoll
        {
          OFFSET 0 20.6244 0
          CHANNELS 3 Zrotation Xrotation Yrotation
          JOINT RightFoot
          {
            OFFSET 0 17.1664 0
            CHANNELS 3 Zrotation Xrotation Yrotation
            JOINT RightToeBase
            {
              OFFSET 0 14.3502 0
              CHANNELS 3 Zrotation Xrotation Yrotation
              End Site
              {
                OFFSET 0.00608252 6.94971 -0.801061
              }
            }
          }
        }
      }
    }
  }
  JOINT LeftUpLeg
  {
    OFFSET 5.66616 -1.03903 -0.87161
    CHANNELS 3 Zrotation Xrotation Yrotation
    JOINT LeftUpLegRoll
    {
      OFFSET 0 16.6006 0
      CHANNELS 3 Zrotation Xrotation Yrotation
      JOINT LeftLeg
      {
        OFFSET 0 20.5571 0
        CHANNELS 3 Zrotation Xrotation Yrotation
        JOINT LeftLegRoll
        {
          OFFSET 0 20.8151 0
          CHANNELS 3 Zrotation Xrotation Yrotation
          JOINT LeftFoot
          {
            OFFSET 0 16.9757 0
            CHANNELS 3 Zrotation Xrotation Yrotation
            JOINT LeftToeBase
            {
              OFFSET 0 14.3502 0
              CHANNELS 3 Zrotation Xrotation Yrotation
              End Site
              {
                OFFSET -0.0272592 6.9497 -0.801061
              }
            }
          }
        }
      }
    }
  }
}
MOTION
Frames: 5
Frame Time: 0.00208333
52.5395 85.1765 10.2187 0.11281 1.13315 -20.7646 -0.686941 -1.41915 -0.922311 -1.38708 1.17516 -1.77191 -1.36693 2.81963 -1.74959 4.00909 20.2202 -5.57295 -12.3921 4.42476 -4.72894 58.8234 -6.95997 -4.31555 108.873 20.201 -49.0469 -3.05463e-006 8.70523e-007 -3.91098e-006 -163.707 47.9946 130.385 1.48818e-007 -6.31278e-006 -3.00219 8.02891 -4.95142 0.697702 -44.3142 3.79833 -5.05529 -99.448 29.0296 -5.86738 -1.62816e-006 6.518e-007 4.47958e-006 173.929 62.072 -170.271 -2.87435e-006 1.53941e-006 3 -8.02888 -4.95144 -0.697678 172.573 8.47233 2.29184 180 7.01575e-015 179.052 176.483 8.46931 179.653 -7.81407e-007 -1.14652e-006 -0.0349574 -15.1276 65.2392 17.5974 8.13653 25.2333 -3.48682 -172.571 2.39322 -0.729918 4.54188e-006 -4.6773e-006 -1.06214 -0.593446 -11.7674 0.451732 1.50862e-006 3.14011e-006 -0.472463 24.0594 73.2793 -25.3057 -8.13017 25.2792 3.42377 
52.5516 85.1765 10.2185 0.131083 1.17216 -20.5288 -0.678139 -1.43015 -0.910839 -1.36948 1.15288 -1.75004 -1.34952 2.79737 -1.72799 3.73174 20.3261 -5.57726 -11.977 4.37905 -4.8196 58.6856 -6.71555 -4.1551 108.874 20.2924 -48.5564 -3.05463e-006 8.70523e-007 -3.91098e-006 -163.85 48.0489 130.789 1.48818e-007 -6.31278e-006 -3.00218 8.02891 -4.95142 0.697702 -44.8916 3.68552 -4.84954 -99.4805 28.5381 -4.65694 -1.62816e-006 6.518e-007 4.47958e-006 173.718 61.5325 -169.401 -2.87435e-006 1.53941e-006 3 -8.02888 -4.95144 -0.697678 172.555 8.4537 2.3059 180 7.01575e-015 179.051 176.475 8.46216 179.654 -7.81407e-007 -1.14652e-006 -0.0350089 -15.1379 65.2471 17.602 8.13653 25.2333 -3.48682 -172.565 2.48223 -0.719661 4.54188e-006 -4.6773e-006 -1.06057 -0.587204 -11.7267 0.453493 1.50862e-006 3.14011e-006 -0.46737 23.9783 73.2271 -25.2287 -8.12946 25.2688 3.43733 
52.5432 85.1773 10.2161 0.149491 1.20981 -20.2915 -0.669461 -1.44043 -0.899594 -1.35211 1.13205 -1.72859 -1.33235 2.77656 -1.70683 3.44578 20.4248 -5.57904 -11.5554 4.33818 -4.91057 58.5409 -6.47014 -3.99253 108.883 20.389 -48.0602 -3.05463e-006 8.70523e-007 -3.91098e-006 -163.993 48.1076 131.201 1.48818e-007 -6.31278e-006 -3.00218 8.02891 -4.95142 0.697702 -45.4578 3.56247 -4.64106 -99.4966 28.0772 -3.46477 -1.62816e-006 6.518e-007 4.47958e-006 173.522 61.0029 -168.549 -2.87435e-006 1.53941e-006 3 -8.02888 -4.95144 -0.697678 172.538 8.4335 2.3191 180 7.01575e-015 179.051 176.468 8.455 179.655 -7.81407e-007 -1.14652e-006 -0.0350662 -15.1483 65.2554 17.6068 8.13653 25.2333 -3.48682 -172.56 2.5713 -0.708803 4.54188e-006 -4.6773e-006 -1.05894 -0.580495 -11.6858 0.455539 1.50862e-006 3.14011e-006 -0.461861 23.8902 73.1714 -25.1469 -8.12879 25.2592 3.44977 
52.5484 85.1791 10.2171 0.168155 1.24583 -20.0531 -0.660918 -1.44985 -0.88865 -1.335 1.11296 -1.70773 -1.31544 2.75748 -1.68623 3.14996 20.5142 -5.57749 -11.1268 4.30362 -5.0014 58.3879 -6.224 -3.82783 108.899 20.4915 -47.559 -3.05463e-006 8.70523e-007 -3.91098e-006 -164.136 48.1716 131.621 1.48818e-007 -6.31278e-006 -3.00218 8.02891 -4.95142 0.697702 -46.011 3.42782 -4.42919 -99.5 27.6544 -2.29317 -1.62816e-006 6.518e-007 4.47958e-006 173.344 60.4804 -167.724 -2.87435e-006 1.53941e-006 3 -8.02888 -4.95144 -0.697678 172.521 8.41161 2.33133 180 7.01575e-015 179.051 176.462 8.44791 179.656 -7.81407e-007 -1.14652e-006 -0.0351305 -15.1586 65.2641 17.6119 8.13653 25.2333 -3.48682 -172.555 2.66026 -0.697202 4.54188e-006 -4.6773e-006 -1.05727 -0.573236 -11.6445 0.457908 1.50862e-006 3.14011e-006 -0.455888 23.7943 73.1117 -25.0597 -8.1282 25.2507 3.46089 
52.5495 85.1772 10.2116 0.187202 1.27996 -19.8137 -0.652523 -1.45826 -0.878082 -1.31817 1.0959 -1.68758 -1.29881 2.74043 -1.66635 2.84304 20.5924 -5.5718 -10.691 4.27679 -5.09168 58.2257 -5.97737 -3.66105 108.926 20.6006 -47.0531 -3.05463e-006 8.70523e-007 -3.91098e-006 -164.279 48.2415 132.05 1.48818e-007 -6.31278e-006 -3.00218 8.02891 -4.95142 0.697702 -46.5492 3.28021 -4.21331 -99.4951 27.2775 -1.14424 -1.62816e-006 6.518e-007 4.47958e-006 173.188 59.9623 -166.934 -2.87435e-006 1.53941e-006 3 -8.02888 -4.95144 -0.697678 172.504 8.38793 2.34245 180 7.01575e-015 179.051 176.459 8.44089 179.656 -7.81407e-007 -1.14652e-006 -0.035203 -15.169 65.2733 17.6173 8.13653 25.2333 -3.48682 -172.551 2.74893 -0.684715 4.54188e-006 -4.6773e-006 -1.05556 -0.565344 -11.6027 0.460642 1.50862e-006 3.14011e-006 -0.449406 23.6898 73.0477 -24.9666 -8.12767 25.2433 3.47049 
